<svg width="17" height="16" viewBox="0 0 17 16" fill="none" xmlns="http://www.w3.org/2000/svg">
<path d="M8.95714 0.283203C5.28227 0.283203 2.21277 2.89919 1.54688 6.34541H0L1.88571 8.67704L3.77143 6.34541H2.51183C3.15833 3.41023 5.79356 1.21585 8.95714 1.21585C12.6078 1.21585 15.5571 4.13327 15.5571 7.74439C15.5571 11.3555 12.6078 14.2729 8.95714 14.2729C6.51276 14.2729 4.38915 12.9643 3.24844 11.016L2.46763 11.5478C3.78334 13.7373 6.19982 15.2056 8.95714 15.2056C13.1174 15.2056 16.5 11.8595 16.5 7.74439C16.5 3.62924 13.1174 0.283203 8.95714 0.283203V0.283203Z" fill="#808080"/>
</svg>
