<svg width="22" height="19" viewBox="0 0 22 19" fill="none" xmlns="http://www.w3.org/2000/svg">
<path d="M13.8451 16.0132C13.8794 16.019 13.9135 16.0217 13.9471 16.0217C14.2429 16.0217 14.504 15.8081 14.5542 15.5067L15.1704 11.8095C15.2264 11.4738 14.9996 11.1563 14.6639 11.1003C14.3282 11.0442 14.0107 11.2711 13.9548 11.6068L13.3386 15.3041C13.2826 15.6398 13.5094 15.9573 13.8451 16.0132Z" fill="white"/>
<path d="M6.51922 15.5067C6.56947 15.8081 6.83049 16.0217 7.12632 16.0217C7.15996 16.0217 7.19406 16.0189 7.22836 16.0132C7.56407 15.9572 7.79084 15.6398 7.73489 15.3041L7.11868 11.6068C7.06272 11.2711 6.74529 11.0444 6.40954 11.1003C6.07383 11.1562 5.84706 11.4737 5.90301 11.8094L6.51922 15.5067Z" fill="white"/>
<path d="M20.4171 6.16211H18.2484L13.5038 0.231278C13.2912 -0.0343916 12.9035 -0.0775676 12.6377 0.135066C12.3719 0.347659 12.3288 0.73542 12.5415 1.00117L16.6702 6.16211H4.36314L8.49192 1.00117C8.70452 0.73542 8.66142 0.347618 8.39571 0.135066C8.12992 -0.0775676 7.74216 -0.0344327 7.52961 0.231278L2.7849 6.16211H0.616211C0.275898 6.16211 0 6.438 0 6.77832V9.24316C0 9.58347 0.275898 9.85937 0.616211 9.85937H1.38385L3.72101 18.0394C3.79656 18.304 4.03836 18.4863 4.31348 18.4863H16.7199C16.995 18.4863 17.2368 18.304 17.3124 18.0394L19.6495 9.85937H20.4171C20.7574 9.85937 21.0333 9.58347 21.0333 9.24316V6.77832C21.0333 6.438 20.7574 6.16211 20.4171 6.16211ZM16.2551 17.2539H4.77827L2.66557 9.85937H18.3678L16.2551 17.2539ZM19.8009 8.62695C17.69 8.62695 3.23223 8.62695 1.23242 8.62695V7.39453H19.8009V8.62695Z" fill="white"/>
<path d="M10.5166 16.0215C10.8569 16.0215 11.1328 15.7456 11.1328 15.4053V11.708C11.1328 11.3677 10.8569 11.0918 10.5166 11.0918C10.1763 11.0918 9.90039 11.3677 9.90039 11.708V15.4053C9.90039 15.7456 10.1763 16.0215 10.5166 16.0215Z" fill="white"/>
</svg>
