<svg width="25" height="25" viewBox="0 0 25 25" fill="none" xmlns="http://www.w3.org/2000/svg">
<g clip-path="url(#clip0)">
<rect x="-238.082" y="-260" width="287.081" height="314.437" fill="#F5F5F5"/>
<rect x="-0.96875" y="-1.19531" width="26.4545" height="27.8155" rx="3" fill="#2F76F0"/>
<path d="M15.8451 19.0132C15.8794 19.019 15.9135 19.0217 15.9471 19.0217C16.2429 19.0217 16.504 18.8081 16.5542 18.5067L17.1704 14.8095C17.2264 14.4738 16.9996 14.1563 16.6639 14.1003C16.3282 14.0442 16.0107 14.2711 15.9548 14.6068L15.3386 18.3041C15.2826 18.6398 15.5094 18.9573 15.8451 19.0132Z" fill="white"/>
<path d="M8.51922 18.5067C8.56947 18.8081 8.83049 19.0217 9.12632 19.0217C9.15996 19.0217 9.19406 19.0189 9.22836 19.0132C9.56407 18.9572 9.79084 18.6398 9.73489 18.3041L9.11868 14.6068C9.06272 14.2711 8.74529 14.0444 8.40954 14.1003C8.07383 14.1562 7.84706 14.4737 7.90301 14.8094L8.51922 18.5067Z" fill="white"/>
<path d="M22.4171 9.16211H20.2484L15.5038 3.23128C15.2912 2.96561 14.9035 2.92243 14.6377 3.13507C14.3719 3.34766 14.3288 3.73542 14.5415 4.00117L18.6702 9.16211H6.36314L10.4919 4.00117C10.7045 3.73542 10.6614 3.34762 10.3957 3.13507C10.1299 2.92243 9.74216 2.96557 9.52961 3.23128L4.7849 9.16211H2.61621C2.2759 9.16211 2 9.438 2 9.77832V12.2432C2 12.5835 2.2759 12.8594 2.61621 12.8594H3.38385L5.72101 21.0394C5.79656 21.304 6.03836 21.4863 6.31348 21.4863H18.7199C18.995 21.4863 19.2368 21.304 19.3124 21.0394L21.6495 12.8594H22.4171C22.7574 12.8594 23.0333 12.5835 23.0333 12.2432V9.77832C23.0333 9.438 22.7574 9.16211 22.4171 9.16211ZM18.2551 20.2539H6.77827L4.66557 12.8594H20.3678L18.2551 20.2539ZM21.8009 11.627C19.69 11.627 5.23223 11.627 3.23242 11.627V10.3945H21.8009V11.627Z" fill="white"/>
<path d="M12.5166 19.0215C12.8569 19.0215 13.1328 18.7456 13.1328 18.4053V14.708C13.1328 14.3677 12.8569 14.0918 12.5166 14.0918C12.1763 14.0918 11.9004 14.3677 11.9004 14.708V18.4053C11.9004 18.7456 12.1763 19.0215 12.5166 19.0215Z" fill="white"/>
<rect x="-238.082" y="-260" width="287.081" height="314.437" fill="#F5F5F5"/>
<rect x="-0.96875" y="-1.19531" width="26.4545" height="27.8155" rx="3" fill="#2F76F0"/>
<path d="M15.8451 19.0132C15.8794 19.019 15.9135 19.0217 15.9471 19.0217C16.2429 19.0217 16.504 18.8081 16.5542 18.5067L17.1704 14.8095C17.2264 14.4738 16.9996 14.1563 16.6639 14.1003C16.3282 14.0442 16.0107 14.2711 15.9548 14.6068L15.3386 18.3041C15.2826 18.6398 15.5094 18.9573 15.8451 19.0132Z" fill="white"/>
<path d="M8.51922 18.5067C8.56947 18.8081 8.83049 19.0217 9.12632 19.0217C9.15996 19.0217 9.19406 19.0189 9.22836 19.0132C9.56407 18.9572 9.79084 18.6398 9.73489 18.3041L9.11868 14.6068C9.06272 14.2711 8.74529 14.0444 8.40954 14.1003C8.07383 14.1562 7.84706 14.4737 7.90301 14.8094L8.51922 18.5067Z" fill="white"/>
<path d="M22.4171 9.16211H20.2484L15.5038 3.23128C15.2912 2.96561 14.9035 2.92243 14.6377 3.13507C14.3719 3.34766 14.3288 3.73542 14.5415 4.00117L18.6702 9.16211H6.36314L10.4919 4.00117C10.7045 3.73542 10.6614 3.34762 10.3957 3.13507C10.1299 2.92243 9.74216 2.96557 9.52961 3.23128L4.7849 9.16211H2.61621C2.2759 9.16211 2 9.438 2 9.77832V12.2432C2 12.5835 2.2759 12.8594 2.61621 12.8594H3.38385L5.72101 21.0394C5.79656 21.304 6.03836 21.4863 6.31348 21.4863H18.7199C18.995 21.4863 19.2368 21.304 19.3124 21.0394L21.6495 12.8594H22.4171C22.7574 12.8594 23.0333 12.5835 23.0333 12.2432V9.77832C23.0333 9.438 22.7574 9.16211 22.4171 9.16211ZM18.2551 20.2539H6.77827L4.66557 12.8594H20.3678L18.2551 20.2539ZM21.8009 11.627C19.69 11.627 5.23223 11.627 3.23242 11.627V10.3945H21.8009V11.627Z" fill="white"/>
<path d="M12.5166 19.0215C12.8569 19.0215 13.1328 18.7456 13.1328 18.4053V14.708C13.1328 14.3677 12.8569 14.0918 12.5166 14.0918C12.1763 14.0918 11.9004 14.3677 11.9004 14.708V18.4053C11.9004 18.7456 12.1763 19.0215 12.5166 19.0215Z" fill="white"/>
</g>
<defs>
<clipPath id="clip0">
<rect width="25" height="25" fill="white"/>
</clipPath>
</defs>
</svg>
