<svg width="12" height="13" viewBox="0 0 12 13" fill="none" xmlns="http://www.w3.org/2000/svg">
<path fill-rule="evenodd" clip-rule="evenodd" d="M1.36656 1.60491C2.22498 0.746131 3.38435 0.255712 4.59852 0.23778C5.85962 0.219801 7.07431 0.712955 7.96591 1.60491C9.60253 3.24557 9.78717 5.83855 8.39953 7.69452L12 11.2946L11.0572 12.2373L7.45807 8.63849C5.60136 10.0264 3.00723 9.84121 1.36656 8.20361C-0.455521 6.38132 -0.455521 3.42721 1.36656 1.60491ZM7.02314 2.54758C6.40994 1.93412 5.58175 1.58382 4.71442 1.57106C3.81369 1.55827 2.94614 1.91052 2.30933 2.54758C1.00784 3.84922 1.00784 5.9593 2.30933 7.26094C3.61109 8.5623 5.72138 8.5623 7.02314 7.26094C8.32463 5.9593 8.32463 3.84922 7.02314 2.54758Z" fill="white"/>
</svg>
